<svg width="266" height="300" viewBox="0 0 266 300" fill="none" xmlns="http://www.w3.org/2000/svg">
<path fill-rule="evenodd" clip-rule="evenodd" d="M231.032 0H220.567L266 50.8582V39.1423L231.032 0ZM266 10.8582L256.3 0H266V10.8582ZM266 79.142L195.299 0H184.834L266 90.858V79.142ZM266 119.142L159.566 0H149.1L266 130.858V119.142ZM266 159.142L123.832 0H113.366L266 170.858V159.142ZM266 199.142L88.0993 0H77.6332L266 210.858V199.142ZM253.366 225L65 14.1423V25.8582L242.9 225H253.366ZM217.632 225L65 54.1423V65.858L207.167 225H217.632ZM181.899 225L65 94.142V105.858L171.434 225H181.899ZM146.166 225L65 134.142V145.858L135.7 225H146.166ZM110.433 225L65 174.142V185.858L99.9665 225H110.433ZM74.6993 225L65 214.142V225H74.6993Z" fill="white"/>
<path d="M4.8659 188.509C4.8659 185.819 2.6873 183.638 0 183.638V149C21.7973 149 39.4675 166.689 39.4675 188.509V260.491C39.4675 263.181 41.646 265.362 44.3333 265.362C47.0207 265.362 49.1992 263.181 49.1992 260.491V188.509C49.1992 166.689 66.8694 149 88.667 149C110.464 149 128.134 166.689 128.134 188.509V260.491C128.134 263.181 130.313 265.362 133 265.362C135.687 265.362 137.866 263.181 137.866 260.491V188.509C137.866 166.689 155.536 149 177.333 149C199.131 149 216.801 166.689 216.801 188.509V260.491C216.801 263.181 218.979 265.362 221.667 265.362C224.354 265.362 226.533 263.181 226.533 260.491V188.509C226.533 166.689 244.203 149 266 149V183.638C263.313 183.638 261.134 185.819 261.134 188.509V260.491C261.134 282.311 243.464 300 221.667 300C199.869 300 182.199 282.311 182.199 260.491V188.509C182.199 185.819 180.021 183.638 177.333 183.638C174.646 183.638 172.467 185.819 172.467 188.509V260.491C172.467 282.311 154.797 300 133 300C111.203 300 93.533 282.311 93.533 260.491V188.509C93.533 185.819 91.354 183.638 88.667 183.638C85.979 183.638 83.801 185.819 83.801 188.509V260.491C83.801 282.311 66.1306 300 44.3333 300C22.536 300 4.8659 282.311 4.8659 260.491V188.509Z" fill="#FF8282"/>
</svg>
