<svg width="201" height="225" viewBox="0 0 201 225" fill="none" xmlns="http://www.w3.org/2000/svg">
<path fill-rule="evenodd" clip-rule="evenodd" d="M166.032 0H155.567L201 50.8582V39.1423L166.032 0ZM201 10.8582L191.3 0H201V10.8582ZM201 79.142L130.299 0H119.834L201 90.858V79.142ZM201 119.142L94.5656 0H84.1002L201 130.858V119.142ZM201 159.142L58.8323 0H48.3665L201 170.858V159.142ZM201 199.142L23.0993 0H12.6332L201 210.858V199.142ZM188.366 225L0 14.1423V25.8582L177.9 225H188.366ZM152.632 225L0 54.1423V65.858L142.167 225H152.632ZM116.899 225L0 94.142V105.858L106.434 225H116.899ZM81.1656 225L0 134.142V145.858L70.7002 225H81.1656ZM45.4326 225L0 174.142V185.858L34.9665 225H45.4326ZM9.69928 225L0 214.142V225H9.69928Z" fill="#FF8282"/>
</svg>
